<svg version="1.1" xmlns="http://www.w3.org/2000/svg" xmlns:xlink="http://www.w3.org/1999/xlink">
    <line x1="981" y1="500" x2="981" y2="513" stroke="black" stroke-width="2" />
    <line x1="981" y1="513" x2="982" y2="513" stroke="black" stroke-width="2" />
    <line x1="982" y1="513" x2="982" y2="525" stroke="black" stroke-width="2" />
    <line x1="982" y1="525" x2="984" y2="525" stroke="black" stroke-width="2" />
    <line x1="984" y1="525" x2="984" y2="537" stroke="black" stroke-width="2" />
    <line x1="984" y1="537" x2="975" y2="537" stroke="black" stroke-width="2" />
    <line x1="975" y1="537" x2="975" y2="549" stroke="black" stroke-width="2" />
    <line x1="975" y1="549" x2="974" y2="549" stroke="black" stroke-width="2" />
    <line x1="974" y1="549" x2="974" y2="561" stroke="black" stroke-width="2" />
    <line x1="974" y1="561" x2="978" y2="561" stroke="black" stroke-width="2" />
    <line x1="978" y1="561" x2="978" y2="573" stroke="black" stroke-width="2" />
    <line x1="978" y1="573" x2="975" y2="573" stroke="black" stroke-width="2" />
    <line x1="975" y1="573" x2="975" y2="584" stroke="black" stroke-width="2" />
    <line x1="975" y1="584" x2="967" y2="584" stroke="black" stroke-width="2" />
    <line x1="967" y1="584" x2="967" y2="597" stroke="black" stroke-width="2" />
    <line x1="967" y1="597" x2="971" y2="597" stroke="black" stroke-width="2" />
    <line x1="971" y1="597" x2="971" y2="609" stroke="black" stroke-width="2" />
    <line x1="971" y1="609" x2="967" y2="609" stroke="black" stroke-width="2" />
    <line x1="967" y1="609" x2="967" y2="621" stroke="black" stroke-width="2" />
    <line x1="967" y1="621" x2="966" y2="621" stroke="black" stroke-width="2" />
    <line x1="966" y1="621" x2="966" y2="633" stroke="black" stroke-width="2" />
    <line x1="966" y1="633" x2="963" y2="633" stroke="black" stroke-width="2" />
    <line x1="963" y1="633" x2="963" y2="645" stroke="black" stroke-width="2" />
    <line x1="963" y1="645" x2="959" y2="645" stroke="black" stroke-width="2" />
    <line x1="959" y1="645" x2="959" y2="654" stroke="black" stroke-width="2" />
    <line x1="959" y1="654" x2="949" y2="654" stroke="black" stroke-width="2" />
    <line x1="949" y1="654" x2="949" y2="666" stroke="black" stroke-width="2" />
    <line x1="949" y1="666" x2="946" y2="666" stroke="black" stroke-width="2" />
    <line x1="946" y1="666" x2="946" y2="677" stroke="black" stroke-width="2" />
    <line x1="946" y1="677" x2="940" y2="677" stroke="black" stroke-width="2" />
    <line x1="940" y1="677" x2="940" y2="690" stroke="black" stroke-width="2" />
    <line x1="940" y1="690" x2="941" y2="690" stroke="black" stroke-width="2" />
    <line x1="941" y1="690" x2="941" y2="700" stroke="black" stroke-width="2" />
    <line x1="941" y1="700" x2="935" y2="700" stroke="black" stroke-width="2" />
    <line x1="935" y1="700" x2="935" y2="710" stroke="black" stroke-width="2" />
    <line x1="935" y1="710" x2="927" y2="710" stroke="black" stroke-width="2" />
    <line x1="927" y1="710" x2="927" y2="725" stroke="black" stroke-width="2" />
    <line x1="927" y1="725" x2="929" y2="725" stroke="black" stroke-width="2" />
    <line x1="929" y1="725" x2="929" y2="731" stroke="black" stroke-width="2" />
    <line x1="929" y1="731" x2="914" y2="731" stroke="black" stroke-width="2" />
    <line x1="914" y1="731" x2="914" y2="744" stroke="black" stroke-width="2" />
    <line x1="914" y1="744" x2="912" y2="744" stroke="black" stroke-width="2" />
    <line x1="912" y1="744" x2="912" y2="756" stroke="black" stroke-width="2" />
    <line x1="912" y1="756" x2="909" y2="756" stroke="black" stroke-width="2" />
    <line x1="909" y1="756" x2="909" y2="766" stroke="black" stroke-width="2" />
    <line x1="909" y1="766" x2="902" y2="766" stroke="black" stroke-width="2" />
    <line x1="902" y1="766" x2="902" y2="773" stroke="black" stroke-width="2" />
    <line x1="902" y1="773" x2="890" y2="773" stroke="black" stroke-width="2" />
    <line x1="890" y1="773" x2="890" y2="784" stroke="black" stroke-width="2" />
    <line x1="890" y1="784" x2="885" y2="784" stroke="black" stroke-width="2" />
    <line x1="885" y1="784" x2="885" y2="795" stroke="black" stroke-width="2" />
    <line x1="885" y1="795" x2="880" y2="795" stroke="black" stroke-width="2" />
    <line x1="880" y1="795" x2="880" y2="801" stroke="black" stroke-width="2" />
    <line x1="880" y1="801" x2="868" y2="801" stroke="black" stroke-width="2" />
    <line x1="868" y1="801" x2="868" y2="815" stroke="black" stroke-width="2" />
    <line x1="868" y1="815" x2="865" y2="815" stroke="black" stroke-width="2" />
    <line x1="865" y1="815" x2="865" y2="823" stroke="black" stroke-width="2" />
    <line x1="865" y1="823" x2="857" y2="823" stroke="black" stroke-width="2" />
    <line x1="857" y1="823" x2="857" y2="829" stroke="black" stroke-width="2" />
    <line x1="857" y1="829" x2="845" y2="829" stroke="black" stroke-width="2" />
    <line x1="845" y1="829" x2="845" y2="843" stroke="black" stroke-width="2" />
    <line x1="845" y1="843" x2="842" y2="843" stroke="black" stroke-width="2" />
    <line x1="842" y1="843" x2="842" y2="846" stroke="black" stroke-width="2" />
    <line x1="842" y1="846" x2="828" y2="846" stroke="black" stroke-width="2" />
    <line x1="828" y1="846" x2="828" y2="854" stroke="black" stroke-width="2" />
    <line x1="828" y1="854" x2="819" y2="854" stroke="black" stroke-width="2" />
    <line x1="819" y1="854" x2="819" y2="863" stroke="black" stroke-width="2" />
    <line x1="819" y1="863" x2="811" y2="863" stroke="black" stroke-width="2" />
    <line x1="811" y1="863" x2="811" y2="874" stroke="black" stroke-width="2" />
    <line x1="811" y1="874" x2="804" y2="874" stroke="black" stroke-width="2" />
    <line x1="804" y1="874" x2="804" y2="881" stroke="black" stroke-width="2" />
    <line x1="804" y1="881" x2="793" y2="881" stroke="black" stroke-width="2" />
    <line x1="793" y1="881" x2="793" y2="890" stroke="black" stroke-width="2" />
    <line x1="793" y1="890" x2="785" y2="890" stroke="black" stroke-width="2" />
    <line x1="785" y1="890" x2="785" y2="894" stroke="black" stroke-width="2" />
    <line x1="785" y1="894" x2="773" y2="894" stroke="black" stroke-width="2" />
    <line x1="773" y1="894" x2="773" y2="898" stroke="black" stroke-width="2" />
    <line x1="773" y1="898" x2="761" y2="898" stroke="black" stroke-width="2" />
    <line x1="761" y1="898" x2="761" y2="906" stroke="black" stroke-width="2" />
    <line x1="761" y1="906" x2="752" y2="906" stroke="black" stroke-width="2" />
    <line x1="752" y1="906" x2="752" y2="913" stroke="black" stroke-width="2" />
    <line x1="752" y1="913" x2="742" y2="913" stroke="black" stroke-width="2" />
    <line x1="742" y1="913" x2="742" y2="920" stroke="black" stroke-width="2" />
    <line x1="742" y1="920" x2="732" y2="920" stroke="black" stroke-width="2" />
    <line x1="732" y1="920" x2="732" y2="927" stroke="black" stroke-width="2" />
    <line x1="732" y1="927" x2="722" y2="927" stroke="black" stroke-width="2" />
    <line x1="722" y1="927" x2="722" y2="930" stroke="black" stroke-width="2" />
    <line x1="722" y1="930" x2="709" y2="930" stroke="black" stroke-width="2" />
    <line x1="709" y1="930" x2="709" y2="934" stroke="black" stroke-width="2" />
    <line x1="709" y1="934" x2="698" y2="934" stroke="black" stroke-width="2" />
    <line x1="698" y1="934" x2="698" y2="941" stroke="black" stroke-width="2" />
    <line x1="698" y1="941" x2="688" y2="941" stroke="black" stroke-width="2" />
    <line x1="688" y1="941" x2="688" y2="947" stroke="black" stroke-width="2" />
    <line x1="688" y1="947" x2="677" y2="947" stroke="black" stroke-width="2" />
    <line x1="677" y1="947" x2="677" y2="949" stroke="black" stroke-width="2" />
    <line x1="677" y1="949" x2="665" y2="949" stroke="black" stroke-width="2" />
    <line x1="665" y1="949" x2="665" y2="951" stroke="black" stroke-width="2" />
    <line x1="665" y1="951" x2="653" y2="951" stroke="black" stroke-width="2" />
    <line x1="653" y1="951" x2="653" y2="962" stroke="black" stroke-width="2" />
    <line x1="653" y1="962" x2="644" y2="962" stroke="black" stroke-width="2" />
    <line x1="644" y1="962" x2="644" y2="961" stroke="black" stroke-width="2" />
    <line x1="644" y1="961" x2="630" y2="961" stroke="black" stroke-width="2" />
    <line x1="630" y1="961" x2="630" y2="966" stroke="black" stroke-width="2" />
    <line x1="630" y1="966" x2="619" y2="966" stroke="black" stroke-width="2" />
    <line x1="619" y1="966" x2="619" y2="964" stroke="black" stroke-width="2" />
    <line x1="619" y1="964" x2="606" y2="964" stroke="black" stroke-width="2" />
    <line x1="606" y1="964" x2="606" y2="966" stroke="black" stroke-width="2" />
    <line x1="606" y1="966" x2="594" y2="966" stroke="black" stroke-width="2" />
    <line x1="594" y1="966" x2="594" y2="974" stroke="black" stroke-width="2" />
    <line x1="594" y1="974" x2="584" y2="974" stroke="black" stroke-width="2" />
    <line x1="584" y1="974" x2="584" y2="970" stroke="black" stroke-width="2" />
    <line x1="584" y1="970" x2="571" y2="970" stroke="black" stroke-width="2" />
    <line x1="571" y1="970" x2="571" y2="981" stroke="black" stroke-width="2" />
    <line x1="571" y1="981" x2="560" y2="981" stroke="black" stroke-width="2" />
    <line x1="560" y1="981" x2="560" y2="977" stroke="black" stroke-width="2" />
    <line x1="560" y1="977" x2="547" y2="977" stroke="black" stroke-width="2" />
    <line x1="547" y1="977" x2="547" y2="977" stroke="black" stroke-width="2" />
    <line x1="547" y1="977" x2="535" y2="977" stroke="black" stroke-width="2" />
    <line x1="535" y1="977" x2="535" y2="976" stroke="black" stroke-width="2" />
    <line x1="535" y1="976" x2="523" y2="976" stroke="black" stroke-width="2" />
    <line x1="523" y1="976" x2="523" y2="980" stroke="black" stroke-width="2" />
    <line x1="523" y1="980" x2="511" y2="980" stroke="black" stroke-width="2" />
    <line x1="511" y1="980" x2="511" y2="984" stroke="black" stroke-width="2" />
    <line x1="511" y1="984" x2="499" y2="984" stroke="black" stroke-width="2" />
    <line x1="499" y1="984" x2="499" y2="974" stroke="black" stroke-width="2" />
    <line x1="499" y1="974" x2="487" y2="974" stroke="black" stroke-width="2" />
    <line x1="487" y1="974" x2="487" y2="982" stroke="black" stroke-width="2" />
    <line x1="487" y1="982" x2="474" y2="982" stroke="black" stroke-width="2" />
    <line x1="474" y1="982" x2="474" y2="975" stroke="black" stroke-width="2" />
    <line x1="474" y1="975" x2="462" y2="975" stroke="black" stroke-width="2" />
    <line x1="462" y1="975" x2="462" y2="976" stroke="black" stroke-width="2" />
    <line x1="462" y1="976" x2="450" y2="976" stroke="black" stroke-width="2" />
    <line x1="450" y1="976" x2="450" y2="979" stroke="black" stroke-width="2" />
    <line x1="450" y1="979" x2="437" y2="979" stroke="black" stroke-width="2" />
    <line x1="437" y1="979" x2="437" y2="974" stroke="black" stroke-width="2" />
    <line x1="437" y1="974" x2="426" y2="974" stroke="black" stroke-width="2" />
    <line x1="426" y1="974" x2="426" y2="969" stroke="black" stroke-width="2" />
    <line x1="426" y1="969" x2="414" y2="969" stroke="black" stroke-width="2" />
    <line x1="414" y1="969" x2="414" y2="968" stroke="black" stroke-width="2" />
    <line x1="414" y1="968" x2="402" y2="968" stroke="black" stroke-width="2" />
    <line x1="402" y1="968" x2="402" y2="962" stroke="black" stroke-width="2" />
    <line x1="402" y1="962" x2="391" y2="962" stroke="black" stroke-width="2" />
    <line x1="391" y1="962" x2="391" y2="966" stroke="black" stroke-width="2" />
    <line x1="391" y1="966" x2="378" y2="966" stroke="black" stroke-width="2" />
    <line x1="378" y1="966" x2="378" y2="956" stroke="black" stroke-width="2" />
    <line x1="378" y1="956" x2="368" y2="956" stroke="black" stroke-width="2" />
    <line x1="368" y1="956" x2="368" y2="958" stroke="black" stroke-width="2" />
    <line x1="368" y1="958" x2="355" y2="958" stroke="black" stroke-width="2" />
    <line x1="355" y1="958" x2="355" y2="956" stroke="black" stroke-width="2" />
    <line x1="355" y1="956" x2="342" y2="956" stroke="black" stroke-width="2" />
    <line x1="342" y1="956" x2="342" y2="947" stroke="black" stroke-width="2" />
    <line x1="342" y1="947" x2="333" y2="947" stroke="black" stroke-width="2" />
    <line x1="333" y1="947" x2="333" y2="941" stroke="black" stroke-width="2" />
    <line x1="333" y1="941" x2="322" y2="941" stroke="black" stroke-width="2" />
    <line x1="322" y1="941" x2="322" y2="937" stroke="black" stroke-width="2" />
    <line x1="322" y1="937" x2="311" y2="937" stroke="black" stroke-width="2" />
    <line x1="311" y1="937" x2="311" y2="935" stroke="black" stroke-width="2" />
    <line x1="311" y1="935" x2="298" y2="935" stroke="black" stroke-width="2" />
    <line x1="298" y1="935" x2="298" y2="929" stroke="black" stroke-width="2" />
    <line x1="298" y1="929" x2="288" y2="929" stroke="black" stroke-width="2" />
    <line x1="288" y1="929" x2="288" y2="926" stroke="black" stroke-width="2" />
    <line x1="288" y1="926" x2="276" y2="926" stroke="black" stroke-width="2" />
    <line x1="276" y1="926" x2="276" y2="921" stroke="black" stroke-width="2" />
    <line x1="276" y1="921" x2="265" y2="921" stroke="black" stroke-width="2" />
    <line x1="265" y1="921" x2="265" y2="909" stroke="black" stroke-width="2" />
    <line x1="265" y1="909" x2="257" y2="909" stroke="black" stroke-width="2" />
    <line x1="257" y1="909" x2="257" y2="910" stroke="black" stroke-width="2" />
    <line x1="257" y1="910" x2="242" y2="910" stroke="black" stroke-width="2" />
    <line x1="242" y1="910" x2="242" y2="897" stroke="black" stroke-width="2" />
    <line x1="242" y1="897" x2="237" y2="897" stroke="black" stroke-width="2" />
    <line x1="237" y1="897" x2="237" y2="896" stroke="black" stroke-width="2" />
    <line x1="237" y1="896" x2="222" y2="896" stroke="black" stroke-width="2" />
    <line x1="222" y1="896" x2="222" y2="885" stroke="black" stroke-width="2" />
    <line x1="222" y1="885" x2="215" y2="885" stroke="black" stroke-width="2" />
    <line x1="215" y1="885" x2="215" y2="880" stroke="black" stroke-width="2" />
    <line x1="215" y1="880" x2="204" y2="880" stroke="black" stroke-width="2" />
    <line x1="204" y1="880" x2="204" y2="873" stroke="black" stroke-width="2" />
    <line x1="204" y1="873" x2="193" y2="873" stroke="black" stroke-width="2" />
    <line x1="193" y1="873" x2="193" y2="861" stroke="black" stroke-width="2" />
    <line x1="193" y1="861" x2="188" y2="861" stroke="black" stroke-width="2" />
    <line x1="188" y1="861" x2="188" y2="852" stroke="black" stroke-width="2" />
    <line x1="188" y1="852" x2="180" y2="852" stroke="black" stroke-width="2" />
    <line x1="180" y1="852" x2="180" y2="846" stroke="black" stroke-width="2" />
    <line x1="180" y1="846" x2="169" y2="846" stroke="black" stroke-width="2" />
    <line x1="169" y1="846" x2="169" y2="839" stroke="black" stroke-width="2" />
    <line x1="169" y1="839" x2="159" y2="839" stroke="black" stroke-width="2" />
    <line x1="159" y1="839" x2="159" y2="828" stroke="black" stroke-width="2" />
    <line x1="159" y1="828" x2="153" y2="828" stroke="black" stroke-width="2" />
    <line x1="153" y1="828" x2="153" y2="823" stroke="black" stroke-width="2" />
    <line x1="153" y1="823" x2="140" y2="823" stroke="black" stroke-width="2" />
    <line x1="140" y1="823" x2="140" y2="809" stroke="black" stroke-width="2" />
    <line x1="140" y1="809" x2="138" y2="809" stroke="black" stroke-width="2" />
    <line x1="138" y1="809" x2="138" y2="805" stroke="black" stroke-width="2" />
    <line x1="138" y1="805" x2="124" y2="805" stroke="black" stroke-width="2" />
    <line x1="124" y1="805" x2="124" y2="793" stroke="black" stroke-width="2" />
    <line x1="124" y1="793" x2="119" y2="793" stroke="black" stroke-width="2" />
    <line x1="119" y1="793" x2="119" y2="784" stroke="black" stroke-width="2" />
    <line x1="119" y1="784" x2="110" y2="784" stroke="black" stroke-width="2" />
    <line x1="110" y1="784" x2="110" y2="774" stroke="black" stroke-width="2" />
    <line x1="110" y1="774" x2="104" y2="774" stroke="black" stroke-width="2" />
    <line x1="104" y1="774" x2="104" y2="765" stroke="black" stroke-width="2" />
    <line x1="104" y1="765" x2="95" y2="765" stroke="black" stroke-width="2" />
    <line x1="95" y1="765" x2="95" y2="750" stroke="black" stroke-width="2" />
    <line x1="95" y1="750" x2="96" y2="750" stroke="black" stroke-width="2" />
    <line x1="96" y1="750" x2="96" y2="740" stroke="black" stroke-width="2" />
    <line x1="96" y1="740" x2="88" y2="740" stroke="black" stroke-width="2" />
    <line x1="88" y1="740" x2="88" y2="730" stroke="black" stroke-width="2" />
    <line x1="88" y1="730" x2="82" y2="730" stroke="black" stroke-width="2" />
    <line x1="82" y1="730" x2="82" y2="719" stroke="black" stroke-width="2" />
    <line x1="82" y1="719" x2="77" y2="719" stroke="black" stroke-width="2" />
    <line x1="77" y1="719" x2="77" y2="712" stroke="black" stroke-width="2" />
    <line x1="77" y1="712" x2="65" y2="712" stroke="black" stroke-width="2" />
    <line x1="65" y1="712" x2="65" y2="698" stroke="black" stroke-width="2" />
    <line x1="65" y1="698" x2="66" y2="698" stroke="black" stroke-width="2" />
    <line x1="66" y1="698" x2="66" y2="689" stroke="black" stroke-width="2" />
    <line x1="66" y1="689" x2="55" y2="689" stroke="black" stroke-width="2" />
    <line x1="55" y1="689" x2="55" y2="675" stroke="black" stroke-width="2" />
    <line x1="55" y1="675" x2="57" y2="675" stroke="black" stroke-width="2" />
    <line x1="57" y1="675" x2="57" y2="666" stroke="black" stroke-width="2" />
    <line x1="57" y1="666" x2="48" y2="666" stroke="black" stroke-width="2" />
    <line x1="48" y1="666" x2="48" y2="653" stroke="black" stroke-width="2" />
    <line x1="48" y1="653" x2="48" y2="653" stroke="black" stroke-width="2" />
    <line x1="48" y1="653" x2="48" y2="641" stroke="black" stroke-width="2" />
    <line x1="48" y1="641" x2="44" y2="641" stroke="black" stroke-width="2" />
    <line x1="44" y1="641" x2="44" y2="632" stroke="black" stroke-width="2" />
    <line x1="44" y1="632" x2="33" y2="632" stroke="black" stroke-width="2" />
    <line x1="33" y1="632" x2="33" y2="619" stroke="black" stroke-width="2" />
    <line x1="33" y1="619" x2="35" y2="619" stroke="black" stroke-width="2" />
    <line x1="35" y1="619" x2="35" y2="607" stroke="black" stroke-width="2" />
    <line x1="35" y1="607" x2="34" y2="607" stroke="black" stroke-width="2" />
    <line x1="34" y1="607" x2="34" y2="594" stroke="black" stroke-width="2" />
    <line x1="34" y1="594" x2="33" y2="594" stroke="black" stroke-width="2" />
    <line x1="33" y1="594" x2="33" y2="583" stroke="black" stroke-width="2" />
    <line x1="33" y1="583" x2="30" y2="583" stroke="black" stroke-width="2" />
    <line x1="30" y1="583" x2="30" y2="571" stroke="black" stroke-width="2" />
    <line x1="30" y1="571" x2="28" y2="571" stroke="black" stroke-width="2" />
    <line x1="28" y1="571" x2="28" y2="559" stroke="black" stroke-width="2" />
    <line x1="28" y1="559" x2="24" y2="559" stroke="black" stroke-width="2" />
    <line x1="24" y1="559" x2="24" y2="548" stroke="black" stroke-width="2" />
    <line x1="24" y1="548" x2="18" y2="548" stroke="black" stroke-width="2" />
    <line x1="18" y1="548" x2="18" y2="535" stroke="black" stroke-width="2" />
    <line x1="18" y1="535" x2="25" y2="535" stroke="black" stroke-width="2" />
    <line x1="25" y1="535" x2="25" y2="523" stroke="black" stroke-width="2" />
    <line x1="25" y1="523" x2="25" y2="523" stroke="black" stroke-width="2" />
    <line x1="25" y1="523" x2="25" y2="511" stroke="black" stroke-width="2" />
    <line x1="25" y1="511" x2="22" y2="511" stroke="black" stroke-width="2" />
    <line x1="22" y1="511" x2="22" y2="500" stroke="black" stroke-width="2" />
    <line x1="22" y1="500" x2="945" y2="500" stroke="black" stroke-width="2" />
    <line x1="945" y1="500" x2="945" y2="487" stroke="black" stroke-width="2" />
    <line x1="945" y1="487" x2="24" y2="487" stroke="black" stroke-width="2" />
    <line x1="24" y1="487" x2="24" y2="474" stroke="black" stroke-width="2" />
    <line x1="24" y1="474" x2="19" y2="474" stroke="black" stroke-width="2" />
    <line x1="19" y1="474" x2="19" y2="462" stroke="black" stroke-width="2" />
    <line x1="19" y1="462" x2="20" y2="462" stroke="black" stroke-width="2" />
    <line x1="20" y1="462" x2="20" y2="450" stroke="black" stroke-width="2" />
    <line x1="20" y1="450" x2="19" y2="450" stroke="black" stroke-width="2" />
    <line x1="19" y1="450" x2="19" y2="438" stroke="black" stroke-width="2" />
    <line x1="19" y1="438" x2="22" y2="438" stroke="black" stroke-width="2" />
    <line x1="22" y1="438" x2="22" y2="426" stroke="black" stroke-width="2" />
    <line x1="22" y1="426" x2="29" y2="426" stroke="black" stroke-width="2" />
    <line x1="29" y1="426" x2="29" y2="414" stroke="black" stroke-width="2" />
    <line x1="29" y1="414" x2="30" y2="414" stroke="black" stroke-width="2" />
    <line x1="30" y1="414" x2="30" y2="403" stroke="black" stroke-width="2" />
    <line x1="30" y1="403" x2="33" y2="403" stroke="black" stroke-width="2" />
    <line x1="33" y1="403" x2="33" y2="390" stroke="black" stroke-width="2" />
    <line x1="33" y1="390" x2="34" y2="390" stroke="black" stroke-width="2" />
    <line x1="34" y1="390" x2="34" y2="378" stroke="black" stroke-width="2" />
    <line x1="34" y1="378" x2="34" y2="378" stroke="black" stroke-width="2" />
    <line x1="34" y1="378" x2="34" y2="366" stroke="black" stroke-width="2" />
    <line x1="34" y1="366" x2="36" y2="366" stroke="black" stroke-width="2" />
    <line x1="36" y1="366" x2="36" y2="354" stroke="black" stroke-width="2" />
    <line x1="36" y1="354" x2="38" y2="354" stroke="black" stroke-width="2" />
    <line x1="38" y1="354" x2="38" y2="345" stroke="black" stroke-width="2" />
    <line x1="38" y1="345" x2="50" y2="345" stroke="black" stroke-width="2" />
    <line x1="50" y1="345" x2="50" y2="331" stroke="black" stroke-width="2" />
    <line x1="50" y1="331" x2="48" y2="331" stroke="black" stroke-width="2" />
    <line x1="48" y1="331" x2="48" y2="321" stroke="black" stroke-width="2" />
    <line x1="48" y1="321" x2="55" y2="321" stroke="black" stroke-width="2" />
    <line x1="55" y1="321" x2="55" y2="310" stroke="black" stroke-width="2" />
    <line x1="55" y1="310" x2="60" y2="310" stroke="black" stroke-width="2" />
    <line x1="60" y1="310" x2="60" y2="297" stroke="black" stroke-width="2" />
    <line x1="60" y1="297" x2="61" y2="297" stroke="black" stroke-width="2" />
    <line x1="61" y1="297" x2="61" y2="289" stroke="black" stroke-width="2" />
    <line x1="61" y1="289" x2="73" y2="289" stroke="black" stroke-width="2" />
    <line x1="73" y1="289" x2="73" y2="277" stroke="black" stroke-width="2" />
    <line x1="73" y1="277" x2="75" y2="277" stroke="black" stroke-width="2" />
    <line x1="75" y1="277" x2="75" y2="268" stroke="black" stroke-width="2" />
    <line x1="75" y1="268" x2="84" y2="268" stroke="black" stroke-width="2" />
    <line x1="84" y1="268" x2="84" y2="256" stroke="black" stroke-width="2" />
    <line x1="84" y1="256" x2="88" y2="256" stroke="black" stroke-width="2" />
    <line x1="88" y1="256" x2="88" y2="243" stroke="black" stroke-width="2" />
    <line x1="88" y1="243" x2="90" y2="243" stroke="black" stroke-width="2" />
    <line x1="90" y1="243" x2="90" y2="233" stroke="black" stroke-width="2" />
    <line x1="90" y1="233" x2="96" y2="233" stroke="black" stroke-width="2" />
    <line x1="96" y1="233" x2="96" y2="225" stroke="black" stroke-width="2" />
    <line x1="96" y1="225" x2="106" y2="225" stroke="black" stroke-width="2" />
    <line x1="106" y1="225" x2="106" y2="215" stroke="black" stroke-width="2" />
    <line x1="106" y1="215" x2="114" y2="215" stroke="black" stroke-width="2" />
    <line x1="114" y1="215" x2="114" y2="206" stroke="black" stroke-width="2" />
    <line x1="114" y1="206" x2="121" y2="206" stroke="black" stroke-width="2" />
    <line x1="121" y1="206" x2="121" y2="193" stroke="black" stroke-width="2" />
    <line x1="121" y1="193" x2="125" y2="193" stroke="black" stroke-width="2" />
    <line x1="125" y1="193" x2="125" y2="189" stroke="black" stroke-width="2" />
    <line x1="125" y1="189" x2="139" y2="189" stroke="black" stroke-width="2" />
    <line x1="139" y1="189" x2="139" y2="180" stroke="black" stroke-width="2" />
    <line x1="139" y1="180" x2="147" y2="180" stroke="black" stroke-width="2" />
    <line x1="147" y1="180" x2="147" y2="169" stroke="black" stroke-width="2" />
    <line x1="147" y1="169" x2="153" y2="169" stroke="black" stroke-width="2" />
    <line x1="153" y1="169" x2="153" y2="159" stroke="black" stroke-width="2" />
    <line x1="153" y1="159" x2="161" y2="159" stroke="black" stroke-width="2" />
    <line x1="161" y1="159" x2="161" y2="152" stroke="black" stroke-width="2" />
    <line x1="161" y1="152" x2="171" y2="152" stroke="black" stroke-width="2" />
    <line x1="171" y1="152" x2="171" y2="140" stroke="black" stroke-width="2" />
    <line x1="171" y1="140" x2="176" y2="140" stroke="black" stroke-width="2" />
    <line x1="176" y1="140" x2="176" y2="137" stroke="black" stroke-width="2" />
    <line x1="176" y1="137" x2="190" y2="137" stroke="black" stroke-width="2" />
    <line x1="190" y1="137" x2="190" y2="124" stroke="black" stroke-width="2" />
    <line x1="190" y1="124" x2="195" y2="124" stroke="black" stroke-width="2" />
    <line x1="195" y1="124" x2="195" y2="117" stroke="black" stroke-width="2" />
    <line x1="195" y1="117" x2="204" y2="117" stroke="black" stroke-width="2" />
    <line x1="204" y1="117" x2="204" y2="110" stroke="black" stroke-width="2" />
    <line x1="204" y1="110" x2="215" y2="110" stroke="black" stroke-width="2" />
    <line x1="215" y1="110" x2="215" y2="104" stroke="black" stroke-width="2" />
    <line x1="215" y1="104" x2="226" y2="104" stroke="black" stroke-width="2" />
    <line x1="226" y1="104" x2="226" y2="96" stroke="black" stroke-width="2" />
    <line x1="226" y1="96" x2="235" y2="96" stroke="black" stroke-width="2" />
    <line x1="235" y1="96" x2="235" y2="92" stroke="black" stroke-width="2" />
    <line x1="235" y1="92" x2="247" y2="92" stroke="black" stroke-width="2" />
    <line x1="247" y1="92" x2="247" y2="89" stroke="black" stroke-width="2" />
    <line x1="247" y1="89" x2="259" y2="89" stroke="black" stroke-width="2" />
    <line x1="259" y1="89" x2="259" y2="77" stroke="black" stroke-width="2" />
    <line x1="259" y1="77" x2="266" y2="77" stroke="black" stroke-width="2" />
    <line x1="266" y1="77" x2="266" y2="74" stroke="black" stroke-width="2" />
    <line x1="266" y1="74" x2="279" y2="74" stroke="black" stroke-width="2" />
    <line x1="279" y1="74" x2="279" y2="68" stroke="black" stroke-width="2" />
    <line x1="279" y1="68" x2="289" y2="68" stroke="black" stroke-width="2" />
    <line x1="289" y1="68" x2="289" y2="63" stroke="black" stroke-width="2" />
    <line x1="289" y1="63" x2="300" y2="63" stroke="black" stroke-width="2" />
    <line x1="300" y1="63" x2="300" y2="56" stroke="black" stroke-width="2" />
    <line x1="300" y1="56" x2="310" y2="56" stroke="black" stroke-width="2" />
    <line x1="310" y1="56" x2="310" y2="55" stroke="black" stroke-width="2" />
    <line x1="310" y1="55" x2="323" y2="55" stroke="black" stroke-width="2" />
    <line x1="323" y1="55" x2="323" y2="46" stroke="black" stroke-width="2" />
    <line x1="323" y1="46" x2="333" y2="46" stroke="black" stroke-width="2" />
    <line x1="333" y1="46" x2="333" y2="43" stroke="black" stroke-width="2" />
    <line x1="333" y1="43" x2="345" y2="43" stroke="black" stroke-width="2" />
    <line x1="345" y1="43" x2="345" y2="40" stroke="black" stroke-width="2" />
    <line x1="345" y1="40" x2="356" y2="40" stroke="black" stroke-width="2" />
    <line x1="356" y1="40" x2="356" y2="38" stroke="black" stroke-width="2" />
    <line x1="356" y1="38" x2="369" y2="38" stroke="black" stroke-width="2" />
    <line x1="369" y1="38" x2="369" y2="38" stroke="black" stroke-width="2" />
    <line x1="369" y1="38" x2="381" y2="38" stroke="black" stroke-width="2" />
    <line x1="381" y1="38" x2="381" y2="28" stroke="black" stroke-width="2" />
    <line x1="381" y1="28" x2="391" y2="28" stroke="black" stroke-width="2" />
    <line x1="391" y1="28" x2="391" y2="26" stroke="black" stroke-width="2" />
    <line x1="391" y1="26" x2="403" y2="26" stroke="black" stroke-width="2" />
    <line x1="403" y1="26" x2="403" y2="25" stroke="black" stroke-width="2" />
    <line x1="403" y1="25" x2="415" y2="25" stroke="black" stroke-width="2" />
    <line x1="415" y1="25" x2="415" y2="24" stroke="black" stroke-width="2" />
    <line x1="415" y1="24" x2="428" y2="24" stroke="black" stroke-width="2" />
    <line x1="428" y1="24" x2="428" y2="22" stroke="black" stroke-width="2" />
    <line x1="428" y1="22" x2="440" y2="22" stroke="black" stroke-width="2" />
    <line x1="440" y1="22" x2="440" y2="17" stroke="black" stroke-width="2" />
    <line x1="440" y1="17" x2="451" y2="17" stroke="black" stroke-width="2" />
    <line x1="451" y1="17" x2="451" y2="17" stroke="black" stroke-width="2" />
    <line x1="451" y1="17" x2="464" y2="17" stroke="black" stroke-width="2" />
    <line x1="464" y1="17" x2="464" y2="21" stroke="black" stroke-width="2" />
    <line x1="464" y1="21" x2="476" y2="21" stroke="black" stroke-width="2" />
    <line x1="476" y1="21" x2="476" y2="24" stroke="black" stroke-width="2" />
    <line x1="476" y1="24" x2="488" y2="24" stroke="black" stroke-width="2" />
    <line x1="488" y1="24" x2="488" y2="18" stroke="black" stroke-width="2" />
    <line x1="488" y1="18" x2="500" y2="18" stroke="black" stroke-width="2" />
    <line x1="500" y1="18" x2="500" y2="21" stroke="black" stroke-width="2" />
    <line x1="500" y1="21" x2="513" y2="21" stroke="black" stroke-width="2" />
    <line x1="513" y1="21" x2="513" y2="20" stroke="black" stroke-width="2" />
    <line x1="513" y1="20" x2="525" y2="20" stroke="black" stroke-width="2" />
    <line x1="525" y1="20" x2="525" y2="21" stroke="black" stroke-width="2" />
    <line x1="525" y1="21" x2="537" y2="21" stroke="black" stroke-width="2" />
    <line x1="537" y1="21" x2="537" y2="25" stroke="black" stroke-width="2" />
    <line x1="537" y1="25" x2="549" y2="25" stroke="black" stroke-width="2" />
    <line x1="549" y1="25" x2="549" y2="22" stroke="black" stroke-width="2" />
    <line x1="549" y1="22" x2="561" y2="22" stroke="black" stroke-width="2" />
    <line x1="561" y1="22" x2="561" y2="27" stroke="black" stroke-width="2" />
    <line x1="561" y1="27" x2="573" y2="27" stroke="black" stroke-width="2" />
    <line x1="573" y1="27" x2="573" y2="29" stroke="black" stroke-width="2" />
    <line x1="573" y1="29" x2="585" y2="29" stroke="black" stroke-width="2" />
    <line x1="585" y1="29" x2="585" y2="28" stroke="black" stroke-width="2" />
    <line x1="585" y1="28" x2="597" y2="28" stroke="black" stroke-width="2" />
    <line x1="597" y1="28" x2="597" y2="35" stroke="black" stroke-width="2" />
    <line x1="597" y1="35" x2="608" y2="35" stroke="black" stroke-width="2" />
    <line x1="608" y1="35" x2="608" y2="36" stroke="black" stroke-width="2" />
    <line x1="608" y1="36" x2="620" y2="36" stroke="black" stroke-width="2" />
    <line x1="620" y1="36" x2="620" y2="42" stroke="black" stroke-width="2" />
    <line x1="620" y1="42" x2="631" y2="42" stroke="black" stroke-width="2" />
    <line x1="631" y1="42" x2="631" y2="39" stroke="black" stroke-width="2" />
    <line x1="631" y1="39" x2="645" y2="39" stroke="black" stroke-width="2" />
    <line x1="645" y1="39" x2="645" y2="48" stroke="black" stroke-width="2" />
    <line x1="645" y1="48" x2="655" y2="48" stroke="black" stroke-width="2" />
    <line x1="655" y1="48" x2="655" y2="53" stroke="black" stroke-width="2" />
    <line x1="655" y1="53" x2="666" y2="53" stroke="black" stroke-width="2" />
    <line x1="666" y1="53" x2="666" y2="57" stroke="black" stroke-width="2" />
    <line x1="666" y1="57" x2="677" y2="57" stroke="black" stroke-width="2" />
    <line x1="677" y1="57" x2="677" y2="63" stroke="black" stroke-width="2" />
    <line x1="677" y1="63" x2="688" y2="63" stroke="black" stroke-width="2" />
    <line x1="688" y1="63" x2="688" y2="65" stroke="black" stroke-width="2" />
    <line x1="688" y1="65" x2="700" y2="65" stroke="black" stroke-width="2" />
    <line x1="700" y1="65" x2="700" y2="70" stroke="black" stroke-width="2" />
    <line x1="700" y1="70" x2="711" y2="70" stroke="black" stroke-width="2" />
    <line x1="711" y1="70" x2="711" y2="78" stroke="black" stroke-width="2" />
    <line x1="711" y1="78" x2="721" y2="78" stroke="black" stroke-width="2" />
    <line x1="721" y1="78" x2="721" y2="80" stroke="black" stroke-width="2" />
    <line x1="721" y1="80" x2="733" y2="80" stroke="black" stroke-width="2" />
    <line x1="733" y1="80" x2="733" y2="85" stroke="black" stroke-width="2" />
    <line x1="733" y1="85" x2="745" y2="85" stroke="black" stroke-width="2" />
    <line x1="745" y1="85" x2="745" y2="93" stroke="black" stroke-width="2" />
    <line x1="745" y1="93" x2="754" y2="93" stroke="black" stroke-width="2" />
    <line x1="754" y1="93" x2="754" y2="95" stroke="black" stroke-width="2" />
    <line x1="754" y1="95" x2="767" y2="95" stroke="black" stroke-width="2" />
    <line x1="767" y1="95" x2="767" y2="105" stroke="black" stroke-width="2" />
    <line x1="767" y1="105" x2="775" y2="105" stroke="black" stroke-width="2" />
    <line x1="775" y1="105" x2="775" y2="110" stroke="black" stroke-width="2" />
    <line x1="775" y1="110" x2="787" y2="110" stroke="black" stroke-width="2" />
    <line x1="787" y1="110" x2="787" y2="122" stroke="black" stroke-width="2" />
    <line x1="787" y1="122" x2="793" y2="122" stroke="black" stroke-width="2" />
    <line x1="793" y1="122" x2="793" y2="130" stroke="black" stroke-width="2" />
    <line x1="793" y1="130" x2="802" y2="130" stroke="black" stroke-width="2" />
    <line x1="802" y1="130" x2="802" y2="133" stroke="black" stroke-width="2" />
    <line x1="802" y1="133" x2="816" y2="133" stroke="black" stroke-width="2" />
    <line x1="816" y1="133" x2="816" y2="144" stroke="black" stroke-width="2" />
    <line x1="816" y1="144" x2="822" y2="144" stroke="black" stroke-width="2" />
    <line x1="822" y1="144" x2="822" y2="154" stroke="black" stroke-width="2" />
    <line x1="822" y1="154" x2="829" y2="154" stroke="black" stroke-width="2" />
    <line x1="829" y1="154" x2="829" y2="164" stroke="black" stroke-width="2" />
    <line x1="829" y1="164" x2="836" y2="164" stroke="black" stroke-width="2" />
    <line x1="836" y1="164" x2="836" y2="167" stroke="black" stroke-width="2" />
    <line x1="836" y1="167" x2="851" y2="167" stroke="black" stroke-width="2" />
    <line x1="851" y1="167" x2="851" y2="175" stroke="black" stroke-width="2" />
    <line x1="851" y1="175" x2="860" y2="175" stroke="black" stroke-width="2" />
    <line x1="860" y1="175" x2="860" y2="187" stroke="black" stroke-width="2" />
    <line x1="860" y1="187" x2="865" y2="187" stroke="black" stroke-width="2" />
    <line x1="865" y1="187" x2="865" y2="195" stroke="black" stroke-width="2" />
    <line x1="865" y1="195" x2="874" y2="195" stroke="black" stroke-width="2" />
    <line x1="874" y1="195" x2="874" y2="206" stroke="black" stroke-width="2" />
    <line x1="874" y1="206" x2="880" y2="206" stroke="black" stroke-width="2" />
    <line x1="880" y1="206" x2="880" y2="216" stroke="black" stroke-width="2" />
    <line x1="880" y1="216" x2="888" y2="216" stroke="black" stroke-width="2" />
    <line x1="888" y1="216" x2="888" y2="226" stroke="black" stroke-width="2" />
    <line x1="888" y1="226" x2="895" y2="226" stroke="black" stroke-width="2" />
    <line x1="895" y1="226" x2="895" y2="238" stroke="black" stroke-width="2" />
    <line x1="895" y1="238" x2="897" y2="238" stroke="black" stroke-width="2" />
    <line x1="897" y1="238" x2="897" y2="245" stroke="black" stroke-width="2" />
    <line x1="897" y1="245" x2="910" y2="245" stroke="black" stroke-width="2" />
    <line x1="910" y1="245" x2="910" y2="255" stroke="black" stroke-width="2" />
    <line x1="910" y1="255" x2="916" y2="255" stroke="black" stroke-width="2" />
    <line x1="916" y1="255" x2="916" y2="265" stroke="black" stroke-width="2" />
    <line x1="916" y1="265" x2="924" y2="265" stroke="black" stroke-width="2" />
    <line x1="924" y1="265" x2="924" y2="276" stroke="black" stroke-width="2" />
    <line x1="924" y1="276" x2="929" y2="276" stroke="black" stroke-width="2" />
    <line x1="929" y1="276" x2="929" y2="290" stroke="black" stroke-width="2" />
    <line x1="929" y1="290" x2="930" y2="290" stroke="black" stroke-width="2" />
    <line x1="930" y1="290" x2="930" y2="298" stroke="black" stroke-width="2" />
    <line x1="930" y1="298" x2="940" y2="298" stroke="black" stroke-width="2" />
    <line x1="940" y1="298" x2="940" y2="310" stroke="black" stroke-width="2" />
    <line x1="940" y1="310" x2="944" y2="310" stroke="black" stroke-width="2" />
    <line x1="944" y1="310" x2="944" y2="321" stroke="black" stroke-width="2" />
    <line x1="944" y1="321" x2="950" y2="321" stroke="black" stroke-width="2" />
    <line x1="950" y1="321" x2="950" y2="333" stroke="black" stroke-width="2" />
    <line x1="950" y1="333" x2="951" y2="333" stroke="black" stroke-width="2" />
    <line x1="951" y1="333" x2="951" y2="346" stroke="black" stroke-width="2" />
    <line x1="951" y1="346" x2="951" y2="346" stroke="black" stroke-width="2" />
    <line x1="951" y1="346" x2="951" y2="357" stroke="black" stroke-width="2" />
    <line x1="951" y1="357" x2="958" y2="357" stroke="black" stroke-width="2" />
    <line x1="958" y1="357" x2="958" y2="369" stroke="black" stroke-width="2" />
    <line x1="958" y1="369" x2="960" y2="369" stroke="black" stroke-width="2" />
    <line x1="960" y1="369" x2="960" y2="380" stroke="black" stroke-width="2" />
    <line x1="960" y1="380" x2="965" y2="380" stroke="black" stroke-width="2" />
    <line x1="965" y1="380" x2="965" y2="391" stroke="black" stroke-width="2" />
    <line x1="965" y1="391" x2="970" y2="391" stroke="black" stroke-width="2" />
    <line x1="970" y1="391" x2="970" y2="403" stroke="black" stroke-width="2" />
    <line x1="970" y1="403" x2="974" y2="403" stroke="black" stroke-width="2" />
    <line x1="974" y1="403" x2="974" y2="416" stroke="black" stroke-width="2" />
    <line x1="974" y1="416" x2="970" y2="416" stroke="black" stroke-width="2" />
    <line x1="970" y1="416" x2="970" y2="428" stroke="black" stroke-width="2" />
    <line x1="970" y1="428" x2="973" y2="428" stroke="black" stroke-width="2" />
    <line x1="973" y1="428" x2="973" y2="440" stroke="black" stroke-width="2" />
    <line x1="973" y1="440" x2="978" y2="440" stroke="black" stroke-width="2" />
    <line x1="978" y1="440" x2="978" y2="451" stroke="black" stroke-width="2" />
    <line x1="978" y1="451" x2="982" y2="451" stroke="black" stroke-width="2" />
    <line x1="982" y1="451" x2="982" y2="464" stroke="black" stroke-width="2" />
    <line x1="982" y1="464" x2="977" y2="464" stroke="black" stroke-width="2" />
    <line x1="977" y1="464" x2="977" y2="476" stroke="black" stroke-width="2" />
    <line x1="977" y1="476" x2="978" y2="476" stroke="black" stroke-width="2" />
    <line x1="978" y1="476" x2="978" y2="488" stroke="black" stroke-width="2" />
    <line x1="978" y1="488" x2="983" y2="488" stroke="black" stroke-width="2" />
    <line x1="983" y1="488" x2="983" y2="500" stroke="black" stroke-width="2" />
</svg>
